<svg xmlns="http://www.w3.org/2000/svg" xmlns:xlink="http://www.w3.org/1999/xlink" width="272" height="52" viewBox="0 0 272 52">
    <defs>
        <rect id="b" width="270" height="50" rx="4"/>
        <linearGradient id="c" x1="50%" x2="50%" y1="64.384%" y2="100%">
            <stop offset="0%" stop-color="#EC1C24"/>
            <stop offset="100%" stop-color="#CD181E"/>
        </linearGradient>
    </defs>
    <g fill="none" fill-rule="evenodd">
        <g>
            <use fill="#000" filter="url(#a)" xlink:href="#b"/>
            <use xlink:href="#b"/>
        </g>
        <path fill="#FFF" d="M155.47 30.34c.762 0 1.433-.12 2.014-.363a3.907 3.907 0 0 0 1.464-1.04c.394-.449.692-.99.893-1.62.2-.63.3-1.333.3-2.109s-.1-1.479-.3-2.11c-.201-.63-.499-1.17-.893-1.62a3.915 3.915 0 0 0-1.464-1.039c-.58-.242-1.252-.363-2.013-.363h-3.384V30.34h3.384zm-5.355 1.788v-13.84h5.356c1.079 0 2.034.177 2.865.53.83.354 1.529.839 2.096 1.455a6.27 6.27 0 0 1 1.298 2.192c.297.845.446 1.76.446 2.743 0 .984-.149 1.898-.446 2.743a6.264 6.264 0 0 1-1.298 2.192 5.99 5.99 0 0 1-2.096 1.454c-.83.354-1.786.53-2.865.53h-5.356zM164.646 32.127h1.806V21.322h-1.806v10.805zm0-12.924h1.806V17.29h-1.806v1.912zM177.704 26.34c0-.5-.076-.969-.228-1.406a3.285 3.285 0 0 0-.673-1.146 3.144 3.144 0 0 0-1.096-.771c-.435-.188-.942-.282-1.521-.282-.58 0-1.08.098-1.501.292-.421.194-.773.455-1.056.782a3.197 3.197 0 0 0-.631 1.146c-.138.438-.207.899-.207 1.385 0 .5.069.973.207 1.418.138.444.348.833.631 1.167.283.333.638.597 1.066.791.428.195.925.292 1.49.292.566 0 1.066-.097 1.501-.292a3.302 3.302 0 0 0 1.107-.791c.304-.334.532-.723.683-1.167a4.36 4.36 0 0 0 .228-1.418zm1.785 4.042c0 .831-.083 1.565-.249 2.203a3.929 3.929 0 0 1-.913 1.683 4.17 4.17 0 0 1-1.983 1.309c-.796.249-1.65.374-2.564.374-.9 0-1.72-.108-2.46-.322a7.051 7.051 0 0 1-2.045-.966l.914-1.476a6.11 6.11 0 0 0 1.63.821c.601.2 1.262.301 1.982.301.554 0 1.066-.065 1.536-.196.47-.132.88-.339 1.225-.621.346-.284.62-.65.82-1.097.2-.449.301-.99.301-1.625v-1.16a4 4 0 0 1-1.723 1.514 5.281 5.281 0 0 1-2.221.484 4.89 4.89 0 0 1-1.983-.395 4.556 4.556 0 0 1-1.546-1.09 4.876 4.876 0 0 1-.997-1.663 6.036 6.036 0 0 1-.353-2.088c0-.762.125-1.469.374-2.12a5.16 5.16 0 0 1 1.028-1.683c.435-.47.958-.838 1.567-1.101a4.977 4.977 0 0 1 1.993-.395c.789 0 1.519.163 2.19.488.671.326 1.228.842 1.671 1.548v-1.787h1.806v9.06zM182.561 32.127h1.807V21.322h-1.807v10.805zm0-12.924h1.807V17.29h-1.807v1.912zM193.876 31.65c-.623.484-1.405.727-2.347.727-.636 0-1.193-.111-1.67-.333a2.645 2.645 0 0 1-1.153-1.039 2.673 2.673 0 0 1-.353-.883c-.069-.325-.104-.744-.104-1.257v-6.047h-2.262v-1.496h2.262v-4.03h1.807v4.03h3.487v1.496h-3.487v6.047c0 1.247.553 1.87 1.66 1.87.319 0 .592-.048.82-.145.229-.097.419-.2.571-.312l.769 1.371M203.736 26.725c0-.554-.075-1.073-.227-1.559a3.704 3.704 0 0 0-.662-1.257 3.133 3.133 0 0 0-1.087-.841c-.435-.208-.935-.312-1.5-.312-.566 0-1.063.104-1.49.312a3.004 3.004 0 0 0-1.067.852c-.282.36-.493.779-.631 1.257a5.571 5.571 0 0 0-.207 1.548c0 .554.07 1.073.207 1.558.138.485.345.908.62 1.268a2.9 2.9 0 0 0 1.057.852c.427.208.924.311 1.49.311.58 0 1.086-.103 1.52-.311a3.076 3.076 0 0 0 1.088-.852c.29-.36.51-.783.662-1.268a5.18 5.18 0 0 0 .227-1.558zm1.807 2.992c0 .402.062.696.187.883.124.187.339.28.643.28.263 0 .485-.055.664-.166l.229 1.372a4.132 4.132 0 0 1-1.246.208c-.512 0-.979-.14-1.401-.416-.422-.277-.689-.748-.8-1.413-.484.72-1.072 1.22-1.764 1.496a5.599 5.599 0 0 1-2.097.416c-.788 0-1.494-.146-2.117-.437a4.577 4.577 0 0 1-1.578-1.194 5.319 5.319 0 0 1-.986-1.787 6.952 6.952 0 0 1-.343-2.213c0-.803.115-1.552.343-2.244a5.311 5.311 0 0 1 .986-1.798 4.634 4.634 0 0 1 1.557-1.195c.609-.29 1.3-.436 2.076-.436.747 0 1.446.156 2.097.467.65.312 1.232.835 1.743 1.57v-1.788h1.807v8.395zM209.05 32.128h1.807V17.29h-1.806zM217.168 32.128h3.176v-10.07h-3.176v10.07zm0-11.441h3.176v-2.369h-3.176v2.369zM227.485 29.177c1.218 0 2.135-.358 2.751-1.073.616-.715.924-1.684.924-2.906 0-1.223-.308-2.188-.924-2.896-.616-.708-1.533-1.063-2.75-1.063h-2.409v7.938h2.408zm-5.73 2.95V18.29h5.73c1.149 0 2.166.176 3.052.53.886.353 1.63.838 2.232 1.454a6.022 6.022 0 0 1 1.36 2.192c.304.845.456 1.76.456 2.743 0 .984-.152 1.898-.456 2.743a6.017 6.017 0 0 1-1.36 2.192c-.602.617-1.346 1.101-2.232 1.454-.886.354-1.903.53-3.052.53h-5.73z"/>
        <path fill="url(#c)" d="M113.367 40.997c-.701 0-1.27-.57-1.27-1.272v-29.25a1.27 1.27 0 0 1 1.27-1.272h29.224c.701 0 1.27.57 1.27 1.272v29.25c0 .702-.569 1.272-1.27 1.272h-29.224"/>
        <path d="M117.656 25.894c0 4.42 2.77 8.19 6.666 9.67V16.225a10.337 10.337 0 0 0-6.666 9.668M127.978 15.562c-.285 0-.568.01-.848.032v.726h.052c3.934.029 7.102 3.032 7.073 6.708-.026 3.66-3.213 6.606-7.125 6.602v6.565c.28.024.563.033.848.033 5.7 0 10.325-4.626 10.325-10.334 0-5.706-4.625-10.332-10.325-10.332" style="mix-blend-mode:multiply"/>
        <path fill="#FFF" d="M117.656 25.099c0 4.421 2.77 8.19 6.666 9.67V15.43a10.337 10.337 0 0 0-6.666 9.668M127.978 14.767c-.285 0-.568.01-.848.032v.726h.052c3.934.029 7.102 3.032 7.073 6.708-.026 3.66-3.213 6.606-7.125 6.602V35.4c.28.024.563.033.848.033 5.7 0 10.325-4.626 10.325-10.334 0-5.706-4.625-10.332-10.325-10.332M38.352 20.676L34.908 30h-2.45L29 20.676h2.436l2.24 6.734 2.212-6.734h2.464zm7.588 5.502c0 .121-.005.238-.014.35l-.028.294h-5.376c.037.513.226.896.567 1.148.34.252.782.378 1.323.378a2.8 2.8 0 0 0 1.169-.238c.35-.159.646-.373.889-.644l1.372 1.288c-.42.42-.915.76-1.484 1.022-.57.261-1.26.392-2.072.392-.672 0-1.26-.098-1.764-.294a3.567 3.567 0 0 1-1.267-.812 3.373 3.373 0 0 1-.77-1.225 4.424 4.424 0 0 1-.259-1.533c0-.56.089-1.083.266-1.568.177-.485.434-.903.77-1.253.336-.35.747-.625 1.232-.826.485-.2 1.036-.301 1.652-.301.597 0 1.13.093 1.596.28.467.187.863.448 1.19.784.327.336.576.74.749 1.211.173.471.259.987.259 1.547zm-2.114-.812c-.047-.476-.22-.83-.518-1.064-.299-.233-.672-.35-1.12-.35-.476 0-.861.128-1.155.385-.294.257-.46.6-.497 1.029h3.29zm7.952-.602a1.585 1.585 0 0 0-.84-.224c-.448 0-.819.168-1.113.504-.294.336-.441.784-.441 1.344V30h-2.142v-7.476h2.142v1.12c.233-.383.523-.688.868-.917a1.99 1.99 0 0 1 1.12-.343c.187 0 .369.021.546.063.177.042.317.096.42.161l-.56 2.156zM53.234 30v-7.476h2.142V30h-2.142zm0-8.4v-1.596h2.142V21.6h-2.142zm8.26.042c-.084-.028-.2-.06-.35-.098a2.082 2.082 0 0 0-.504-.056c-.27 0-.474.051-.609.154-.135.103-.203.275-.203.518v.364h1.554v1.624h-1.554V30h-2.142v-5.852h-1.162v-1.624h1.162v-.308c0-.345.056-.663.168-.952.112-.29.282-.539.511-.749.229-.21.511-.373.847-.49a3.585 3.585 0 0 1 1.176-.175c.243 0 .476.012.7.035.224.023.434.063.63.119l-.224 1.638zm5.754 6.888a3.133 3.133 0 0 1-1.015.749 2.913 2.913 0 0 1-1.225.259c-.42 0-.789-.07-1.106-.21a2.246 2.246 0 0 1-.791-.567 2.308 2.308 0 0 1-.469-.847 3.532 3.532 0 0 1-.154-1.064v-4.326h2.142v3.836c0 .159.016.315.049.469a.936.936 0 0 0 .525.693c.15.075.345.112.588.112.401 0 .744-.126 1.029-.378.285-.252.427-.616.427-1.092v-3.64h2.142v6.258c0 .523-.063 1.024-.189 1.505-.126.48-.371.898-.735 1.253-.71.69-1.74 1.036-3.094 1.036-.56 0-1.099-.068-1.617-.203a4.67 4.67 0 0 1-1.379-.595l.784-1.582c.327.205.677.355 1.05.448.373.093.747.14 1.12.14.588 0 1.055-.121 1.4-.364s.518-.616.518-1.12v-.77zm16.1 1.47h-2.17l-1.316-4.69L78.518 30h-2.17l-2.058-7.476h2.338l1.008 4.704 1.358-4.704h1.764l1.344 4.704 1.008-4.704h2.324L83.348 30zm3.192 0v-7.476h2.142V30H86.54zm0-8.4v-1.596h2.142V21.6H86.54zm9.142 7.91c-.261.196-.56.355-.896.476a3.459 3.459 0 0 1-1.176.182 3.3 3.3 0 0 1-1.26-.224 1.86 1.86 0 0 1-.868-.714 2.14 2.14 0 0 1-.336-.742 4.233 4.233 0 0 1-.098-.98v-3.36h-1.4v-1.624h1.4v-2.52h2.156v2.52h2.128v1.624h-2.128v3.374c0 .29.07.492.21.609.14.117.327.175.56.175.187 0 .357-.033.511-.098.154-.065.287-.145.399-.238l.798 1.54zm1.022.49v-9.996h2.142v3.374a3.2 3.2 0 0 1 1.022-.756 2.862 2.862 0 0 1 1.218-.266c.42 0 .789.07 1.106.21.317.14.581.329.791.567.21.238.366.523.469.854.103.331.154.684.154 1.057V30h-2.142v-4.466c0-.159-.016-.315-.049-.469a1.063 1.063 0 0 0-.175-.406.926.926 0 0 0-.357-.287 1.33 1.33 0 0 0-.581-.112c-.401 0-.744.126-1.029.378-.285.252-.427.62-.427 1.106V30h-2.142z"/>
    </g>
</svg>
